<svg width="1800" height="1600" viewBox="0 0 1800 1600" xmlns="http://www.w3.org/2000/svg" role="img" aria-label="PDLC heatmap — stage pulse + capability gaps">
  <defs>
    <style>
      .title { font: 800 34px 'Segoe UI', Arial, sans-serif; fill: #1f2d3d; }
      .stage-header { font: 800 18px 'Segoe UI', Arial, sans-serif; fill: #1f2d3d; }
      .row-header { font: 700 17px 'Segoe UI', Arial, sans-serif; fill: #1f2d3d; }
      .cell-label { font: 700 15px 'Segoe UI', Arial, sans-serif; fill: #51637c; }
      .muted { font: 700 14px 'Segoe UI', Arial, sans-serif; fill: #6d7c8e; }
      .badge { font: 800 11px 'Segoe UI', Arial, sans-serif; fill: #ffffff; }
      .header-box { fill: #edf4ff; stroke: #dfe7f2; stroke-width: 1; }
      .stage-pill { fill: #edf4ff; stroke: #cfe0ff; stroke-width: 1; }
      .row-box { fill: #f8fafc; stroke: #e2e8f0; stroke-width: 1; }
      .cell-gray { fill: #edf2f7; stroke: #dfe7f2; stroke-width: 1; }
      .cell-amber { fill: #f8e7b0; stroke: #d7bf7a; stroke-width: 1; }
      .cell-green { fill: #dff7e8; stroke: #a7dcb7; stroke-width: 1; }
      .cell-blue { fill: #dfeafe; stroke: #bacbf4; stroke-width: 1; }
      .p0 { fill: #e24d4d; }
      .p1 { fill: #f2aa49; }
      .p2 { fill: #4b7be8; }
    </style>
  </defs>

  <rect width="1800" height="1600" fill="#f5f7fb"/>
  <rect x="60" y="44" width="1680" height="1460" rx="24" fill="#ffffff" stroke="#dfe7f2"/>
  <text x="94" y="100" class="title">PDLC heatmap — stage pulse + capability gaps</text>

  <g>
    <rect x="94" y="136" width="300" height="54" rx="12" class="header-box"/>
    <text x="128" y="170" class="stage-header">Stage</text>

    <rect x="410" y="136" width="120" height="54" rx="12" class="header-box"/><text x="470" y="170" class="cell-label" text-anchor="middle">L1</text>
    <rect x="536" y="136" width="120" height="54" rx="12" class="header-box"/><text x="596" y="170" class="cell-label" text-anchor="middle">L2</text>
    <rect x="662" y="136" width="120" height="54" rx="12" class="header-box"/><text x="722" y="170" class="cell-label" text-anchor="middle">L3</text>
    <rect x="788" y="136" width="120" height="54" rx="12" class="header-box"/><text x="848" y="170" class="cell-label" text-anchor="middle">L4</text>
    <rect x="914" y="136" width="120" height="54" rx="12" class="header-box"/><text x="974" y="170" class="cell-label" text-anchor="middle">L5</text>
    <rect x="1425" y="136" width="240" height="54" rx="12" class="header-box"/><text x="1545" y="170" class="cell-label" text-anchor="middle">Stage avg</text>
  </g>

  <g>
    <rect x="94" y="206" width="1571" height="72" rx="14" class="stage-pill"/>
    <text x="128" y="250" class="stage-header">Discover &amp; Plan</text>
    <rect x="1425" y="214" width="240" height="52" rx="12" class="cell-green"/><text x="1545" y="246" class="muted" text-anchor="middle">L3</text>
  </g>

  <g>
    <rect x="94" y="284" width="1571" height="116" rx="14" class="row-box"/>
    <text x="128" y="322" class="row-header">Customer research</text>
    <text x="128" y="350" class="row-header">Roadmap prioritization</text>
    <circle cx="1605" cy="331" r="22" class="p1"/><text x="1605" y="337" class="badge" text-anchor="middle">P1</text>
    <rect x="410" y="298" width="120" height="52" rx="10" class="cell-gray"/><text x="470" y="331" class="muted" text-anchor="middle">—</text>
    <rect x="536" y="298" width="120" height="52" rx="10" class="cell-amber"/><text x="596" y="331" class="muted" text-anchor="middle">2</text>
    <rect x="662" y="298" width="120" height="52" rx="10" class="cell-green"/><text x="722" y="331" class="muted" text-anchor="middle">3</text>
    <rect x="788" y="298" width="120" height="52" rx="10" class="cell-gray"/><text x="848" y="331" class="muted" text-anchor="middle">—</text>
    <rect x="914" y="298" width="120" height="52" rx="10" class="cell-gray"/><text x="974" y="331" class="muted" text-anchor="middle">—</text>
    <rect x="1425" y="298" width="240" height="52" rx="12" class="cell-green"/><text x="1545" y="331" class="muted" text-anchor="middle">L3</text>
  </g>

  <g>
    <rect x="94" y="416" width="1571" height="72" rx="14" class="stage-pill"/>
    <text x="128" y="460" class="stage-header">Define &amp; Design</text>
    <rect x="1425" y="424" width="240" height="52" rx="12" class="cell-amber"/><text x="1545" y="456" class="muted" text-anchor="middle">L2</text>
  </g>

  <g>
    <rect x="94" y="494" width="1571" height="118" rx="14" class="row-box"/>
    <text x="128" y="533" class="row-header">PRD drafting</text>
    <text x="128" y="562" class="row-header">Architecture &amp; design reviews</text>
    <circle cx="1605" cy="540" r="22" class="p1"/><text x="1605" y="546" class="badge" text-anchor="middle">P1</text>
    <rect x="410" y="510" width="120" height="52" rx="10" class="cell-gray"/><text x="470" y="543" class="muted" text-anchor="middle">—</text>
    <rect x="536" y="510" width="120" height="52" rx="10" class="cell-amber"/><text x="596" y="543" class="muted" text-anchor="middle">2</text>
    <rect x="662" y="510" width="120" height="52" rx="10" class="cell-green"/><text x="722" y="543" class="muted" text-anchor="middle">3</text>
    <rect x="788" y="510" width="120" height="52" rx="10" class="cell-gray"/><text x="848" y="543" class="muted" text-anchor="middle">—</text>
    <rect x="914" y="510" width="120" height="52" rx="10" class="cell-gray"/><text x="974" y="543" class="muted" text-anchor="middle">—</text>
    <rect x="1425" y="510" width="240" height="52" rx="12" class="cell-amber"/><text x="1545" y="543" class="muted" text-anchor="middle">L2</text>
  </g>

  <g>
    <rect x="94" y="628" width="1571" height="72" rx="14" class="stage-pill"/>
    <text x="128" y="672" class="stage-header">Build &amp; Validate</text>
    <rect x="1425" y="636" width="240" height="52" rx="12" class="cell-amber"/><text x="1545" y="668" class="muted" text-anchor="middle">L2</text>
  </g>

  <g>
    <rect x="94" y="706" width="1571" height="122" rx="14" class="row-box"/>
    <text x="128" y="746" class="row-header">AI-assisted coding</text>
    <text x="128" y="776" class="row-header">Test creation &amp; automation</text>
    <text x="128" y="805" class="row-header">Release readiness checks</text>
    <circle cx="1605" cy="758" r="22" class="p0"/><text x="1605" y="764" class="badge" text-anchor="middle">P0</text>
    <rect x="410" y="722" width="120" height="52" rx="10" class="cell-gray"/><text x="470" y="755" class="muted" text-anchor="middle">—</text>
    <rect x="536" y="722" width="120" height="52" rx="10" class="cell-amber"/><text x="596" y="755" class="muted" text-anchor="middle">2</text>
    <rect x="662" y="722" width="120" height="52" rx="10" class="cell-green"/><text x="722" y="755" class="muted" text-anchor="middle">3</text>
    <rect x="788" y="722" width="120" height="52" rx="10" class="cell-gray"/><text x="848" y="755" class="muted" text-anchor="middle">—</text>
    <rect x="914" y="722" width="120" height="52" rx="10" class="cell-gray"/><text x="974" y="755" class="muted" text-anchor="middle">—</text>
    <rect x="1425" y="722" width="240" height="52" rx="12" class="cell-amber"/><text x="1545" y="755" class="muted" text-anchor="middle">L2</text>
  </g>

  <g>
    <rect x="94" y="840" width="1571" height="72" rx="14" class="stage-pill"/>
    <text x="128" y="884" class="stage-header">Release &amp; Customer Adoption</text>
    <rect x="1425" y="848" width="240" height="52" rx="12" class="cell-green"/><text x="1545" y="880" class="muted" text-anchor="middle">L3</text>
  </g>

  <g>
    <rect x="94" y="918" width="1571" height="118" rx="14" class="row-box"/>
    <text x="128" y="958" class="row-header">Customer onboarding &amp; configuration</text>
    <text x="128" y="987" class="row-header">Release planning &amp; coordination</text>
    <circle cx="1605" cy="959" r="22" class="p1"/><text x="1605" y="965" class="badge" text-anchor="middle">P1</text>
    <rect x="410" y="934" width="120" height="52" rx="10" class="cell-gray"/><text x="470" y="967" class="muted" text-anchor="middle">—</text>
    <rect x="536" y="934" width="120" height="52" rx="10" class="cell-amber"/><text x="596" y="967" class="muted" text-anchor="middle">2</text>
    <rect x="662" y="934" width="120" height="52" rx="10" class="cell-green"/><text x="722" y="967" class="muted" text-anchor="middle">3</text>
    <rect x="788" y="934" width="120" height="52" rx="10" class="cell-gray"/><text x="848" y="967" class="muted" text-anchor="middle">—</text>
    <rect x="914" y="934" width="120" height="52" rx="10" class="cell-gray"/><text x="974" y="967" class="muted" text-anchor="middle">—</text>
    <rect x="1425" y="934" width="240" height="52" rx="12" class="cell-green"/><text x="1545" y="967" class="muted" text-anchor="middle">L3</text>
  </g>

  <g>
    <rect x="94" y="1052" width="1571" height="72" rx="14" class="stage-pill"/>
    <text x="128" y="1096" class="stage-header">Operate, Support &amp; Resilience</text>
    <rect x="1425" y="1060" width="240" height="52" rx="12" class="cell-blue"/><text x="1545" y="1092" class="muted" text-anchor="middle">L3</text>
  </g>

  <g>
    <rect x="94" y="1130" width="1571" height="118" rx="14" class="row-box"/>
    <text x="128" y="1170" class="row-header">Incident detection &amp; management</text>
    <text x="128" y="1199" class="row-header">Support ticket triage</text>
    <circle cx="1605" cy="1173" r="22" class="p0"/><text x="1605" y="1179" class="badge" text-anchor="middle">P0</text>
    <rect x="410" y="1146" width="120" height="52" rx="10" class="cell-gray"/><text x="470" y="1179" class="muted" text-anchor="middle">—</text>
    <rect x="536" y="1146" width="120" height="52" rx="10" class="cell-amber"/><text x="596" y="1179" class="muted" text-anchor="middle">2</text>
    <rect x="662" y="1146" width="120" height="52" rx="10" class="cell-green"/><text x="722" y="1179" class="muted" text-anchor="middle">3</text>
    <rect x="788" y="1146" width="120" height="52" rx="10" class="cell-gray"/><text x="848" y="1179" class="muted" text-anchor="middle">—</text>
    <rect x="914" y="1146" width="120" height="52" rx="10" class="cell-gray"/><text x="974" y="1179" class="muted" text-anchor="middle">—</text>
    <rect x="1425" y="1146" width="240" height="52" rx="12" class="cell-blue"/><text x="1545" y="1179" class="muted" text-anchor="middle">L3</text>
  </g>
</svg>
